<?xml version="1.0" standalone="no"?>
<!DOCTYPE svg PUBLIC "-//W3C//DTD SVG 20010904//EN"
 "http://www.w3.org/TR/2001/REC-SVG-20010904/DTD/svg10.dtd">
<svg version="1.0" xmlns="http://www.w3.org/2000/svg"
 width="400.000000pt" height="400.000000pt" viewBox="0 0 400.000000 400.000000"
 preserveAspectRatio="xMidYMid meet">
<metadata>
Created by potrace 1.11, written by Peter Selinger 2001-2013
</metadata>
<g transform="translate(0.000000,400.000000) scale(0.100000,-0.100000)"
fill="#000000" stroke="none">
<path d="M446 3984 c-148 -36 -306 -161 -378 -300 -73 -138 -69 -35 -66 -1706
l3 -1503 23 -67 c64 -191 246 -352 441 -394 94 -20 2964 -20 3056 0 228 49
412 233 461 461 18 80 20 2974 3 3057 -43 210 -231 403 -440 453 -93 22 -3012
21 -3103 -1z m2369 -753 c119 -33 253 -101 323 -165 61 -57 84 -95 127 -207
29 -75 31 -112 10 -178 -8 -25 -23 -84 -33 -131 -25 -111 -70 -222 -132 -327
-28 -47 -50 -86 -50 -88 0 -1 69 -5 153 -8 200 -8 243 -19 337 -90 41 -31 78
-57 82 -57 13 0 48 -79 58 -130 13 -69 -3 -147 -50 -239 -70 -139 -199 -322
-329 -466 -238 -264 -400 -420 -448 -430 -16 -4 -55 -15 -89 -26 -53 -17 -124
-26 -124 -15 0 10 138 208 178 256 26 30 139 151 252 269 378 395 407 427 488
546 49 72 48 73 -66 103 -234 62 -691 50 -866 -23 l-36 -15 0 -108 c0 -59 -5
-169 -10 -245 -9 -118 -8 -147 6 -195 10 -37 18 -113 20 -217 l5 -160 -34 37
c-123 136 -226 447 -274 829 -28 228 -20 988 13 1212 l6 37 -44 0 c-23 0 -81
-7 -128 -15 -47 -8 -103 -15 -125 -15 -57 0 -145 22 -146 37 0 7 -1 39 -2 70
-1 53 1 59 34 85 42 33 114 52 284 73 72 9 135 18 140 20 6 3 96 3 200 1 156
-3 204 -7 270 -25z m-1455 -202 c83 -13 132 -42 206 -121 46 -50 62 -75 71
-113 9 -41 9 -53 -3 -64 -12 -13 -27 -10 -111 24 -54 21 -123 44 -154 52 -53
14 -59 14 -129 -11 -339 -118 -649 -527 -667 -881 -14 -274 113 -484 343 -571
219 -82 465 -31 766 159 93 59 99 53 27 -29 -23 -26 -52 -66 -67 -88 -63 -100
-223 -222 -363 -276 -100 -39 -208 -53 -357 -48 -111 3 -121 5 -193 40 -127
62 -248 186 -318 325 -96 192 -123 492 -65 716 45 175 241 501 396 658 110
113 267 202 399 228 63 12 144 13 219 0z"/>
<path d="M2606 2988 c-29 -175 -60 -831 -40 -851 11 -11 139 60 209 116 132
106 248 286 295 457 11 41 20 80 20 86 0 6 -18 31 -40 56 -68 78 -226 145
-382 163 l-57 6 -5 -33z"/>
</g>
</svg>
