<svg width="1359" height="1118" viewBox="0 0 1359 1118" fill="none" xmlns="http://www.w3.org/2000/svg">
<path d="M505.571 211.305L637.74 466.306C645.209 480.717 659.093 490.712 675.129 493.223L961.491 538.066C970.415 539.463 973.944 550.426 967.512 556.767L763.207 758.187C751.468 769.76 746.047 786.294 748.654 802.572L793.775 1084.24C795.193 1093.09 786 1099.83 777.987 1095.81L518.645 965.912C504.269 958.711 487.34 958.711 472.964 965.912L213.622 1095.81C205.609 1099.83 196.417 1093.09 197.834 1084.24L242.955 802.572C245.563 786.294 240.142 769.76 228.402 758.187L24.0975 556.767C17.6653 550.426 21.1946 539.463 30.1184 538.066L316.48 493.223C332.517 490.712 346.4 480.717 353.87 466.306L486.039 211.305C490.142 203.387 501.467 203.387 505.571 211.305Z" stroke="black" stroke-width="40"/>
<path d="M496.373 373L589.502 567.489L797.746 598.677L647.059 750.066L682.632 963.83L496.373 862.904L310.114 963.83L345.686 750.066L195 598.677L403.244 567.489L496.373 373Z" fill="black" stroke="black" stroke-width="40"/>
<path fill-rule="evenodd" clip-rule="evenodd" d="M954.618 27.2466C949.85 17.5844 936.072 17.5845 931.303 27.2467L819.024 254.749C817.13 258.586 813.47 261.246 809.235 261.861L637 286.888L707.383 427.306L984.433 466.945C1051.26 476.506 1077.75 558.822 1029.05 605.567L967.576 664.567L1173.57 772.864C1183.11 777.878 1194.25 769.779 1192.43 759.159L1149.54 509.11C1148.82 504.893 1150.22 500.589 1153.28 497.603L1334.95 320.517C1342.67 312.996 1338.41 299.892 1327.75 298.343L1076.69 261.861C1072.45 261.246 1068.79 258.586 1066.9 254.749L954.618 27.2466Z" fill="black"/>
<path d="M931.303 27.2467L913.368 18.3953L913.368 18.3953L931.303 27.2467ZM954.618 27.2466L972.553 18.3953L972.553 18.3953L954.618 27.2466ZM819.024 254.749L801.089 245.898L801.089 245.898L819.024 254.749ZM809.235 261.861L806.36 242.069L806.36 242.069L809.235 261.861ZM637 286.888L634.124 267.096L606.705 271.08L619.12 295.85L637 286.888ZM707.383 427.306L689.504 436.268L694.192 445.623L704.551 447.105L707.383 427.306ZM984.433 466.945L981.601 486.743L981.601 486.743L984.433 466.945ZM1029.05 605.567L1042.9 619.997L1042.9 619.997L1029.05 605.567ZM967.576 664.567L953.727 650.137L933.704 669.355L958.269 682.27L967.576 664.567ZM1173.57 772.864L1164.26 790.566L1164.26 790.566L1173.57 772.864ZM1192.43 759.159L1172.72 762.54L1172.72 762.54L1192.43 759.159ZM1149.54 509.11L1169.26 505.729L1169.26 505.729L1149.54 509.11ZM1153.28 497.603L1139.32 483.281L1139.32 483.281L1153.28 497.603ZM1334.95 320.517L1320.99 306.195L1320.99 306.195L1334.95 320.517ZM1327.75 298.343L1330.63 278.551L1330.63 278.551L1327.75 298.343ZM1076.69 261.861L1079.56 242.069L1079.56 242.069L1076.69 261.861ZM1066.9 254.749L1048.96 263.601L1048.96 263.601L1066.9 254.749ZM949.238 36.098C946.67 41.3006 939.251 41.3008 936.683 36.098L972.553 18.3953C960.448 -6.13188 925.473 -6.13167 913.368 18.3953L949.238 36.098ZM836.958 263.601L949.238 36.098L913.368 18.3953L801.089 245.898L836.958 263.601ZM812.111 281.653C822.86 280.091 832.152 273.34 836.958 263.601L801.089 245.898C802.109 243.832 804.08 242.4 806.36 242.069L812.111 281.653ZM639.876 306.68L812.111 281.653L806.36 242.069L634.124 267.096L639.876 306.68ZM725.263 418.344L654.88 277.926L619.12 295.85L689.504 436.268L725.263 418.344ZM987.266 447.146L710.216 407.508L704.551 447.105L981.601 486.743L987.266 447.146ZM1042.9 619.997C1103.63 561.709 1070.59 459.068 987.266 447.146L981.601 486.743C1031.93 493.943 1051.88 555.934 1015.2 591.138L1042.9 619.997ZM981.425 678.996L1042.9 619.997L1015.2 591.138L953.727 650.137L981.425 678.996ZM1182.88 755.161L976.883 646.864L958.269 682.27L1164.26 790.566L1182.88 755.161ZM1172.72 762.54C1171.74 756.822 1177.74 752.461 1182.88 755.161L1164.26 790.566C1188.47 803.294 1216.77 782.736 1212.14 755.778L1172.72 762.54ZM1129.83 512.491L1172.72 762.54L1212.14 755.778L1169.26 505.729L1129.83 512.491ZM1139.32 483.281C1131.55 490.862 1128 501.785 1129.83 512.491L1169.26 505.729C1169.65 508 1168.89 510.317 1167.24 511.925L1139.32 483.281ZM1320.99 306.195L1139.32 483.281L1167.24 511.925L1348.91 334.838L1320.99 306.195ZM1324.87 318.135C1319.13 317.301 1316.84 310.245 1320.99 306.195L1348.91 334.838C1368.5 315.747 1357.69 282.484 1330.63 278.551L1324.87 318.135ZM1073.81 281.653L1324.87 318.135L1330.63 278.551L1079.56 242.069L1073.81 281.653ZM1048.96 263.601C1053.77 273.34 1063.06 280.091 1073.81 281.653L1079.56 242.069C1081.84 242.4 1083.81 243.832 1084.83 245.898L1048.96 263.601ZM936.683 36.0979L1048.96 263.601L1084.83 245.898L972.553 18.3953L936.683 36.0979Z" fill="black"/>
</svg>
