<svg width="30" height="23" viewBox="0 0 30 23" fill="none" xmlns="http://www.w3.org/2000/svg">
<path d="M10.0243 4.27004C10.174 3.80939 10.8257 3.80939 10.9754 4.27004L12.9695 10.4073C13.0364 10.6133 13.2284 10.7528 13.445 10.7528H19.8982C20.3825 10.7528 20.5839 11.3726 20.1921 11.6573L14.9714 15.4504C14.7961 15.5777 14.7228 15.8034 14.7897 16.0094L16.7839 22.1467C16.9335 22.6073 16.4063 22.9904 16.0144 22.7057L10.7937 18.9127C10.6185 18.7853 10.3812 18.7853 10.206 18.9127L4.98527 22.7057C4.59342 22.9904 4.06617 22.6073 4.21585 22.1467L6.20998 16.0094C6.27691 15.8034 6.20358 15.5777 6.02834 15.4504L0.807652 11.6573C0.415795 11.3726 0.617182 10.7528 1.10154 10.7528H7.55467C7.77128 10.7528 7.96326 10.6133 8.0302 10.4073L10.0243 4.27004Z" fill="white"/>
<path d="M20.9776 0.352379C20.8324 -0.11746 20.1674 -0.11746 20.0222 0.352379L18.3662 5.71145C18.3014 5.92095 18.1077 6.06383 17.8884 6.06383L13.661 6.06383L14.5347 8.75279H19.898C22.3198 8.75279 23.3267 11.8518 21.3675 13.2753L20.892 13.6207L25.1281 16.8568C25.515 17.1524 26.0531 16.777 25.9094 16.3119L24.2316 10.8823C24.1697 10.6821 24.2392 10.4646 24.4057 10.3374L28.8253 6.96115C29.2053 6.67082 29 6.06383 28.5218 6.06383L23.1114 6.06383C22.8921 6.06383 22.6984 5.92095 22.6337 5.71145L20.9776 0.352379Z" fill="white"/>
<path d="M15.4683 15.0892L20.1921 11.6573C20.5839 11.3726 20.3825 10.7528 19.8982 10.7528L16.7903 10.7528C16.7887 10.7961 16.7815 10.8396 16.7683 10.8823L15.4683 15.0892Z" fill="white"/>
</svg>
